<?xml version="1.0" encoding="UTF-8" standalone="no" ?>
<!DOCTYPE svg PUBLIC "-//W3C//DTD SVG 1.1//EN" "http://www.w3.org/Graphics/SVG/1.1/DTD/svg11.dtd">
<svg xmlns="http://www.w3.org/2000/svg" xmlns:xlink="http://www.w3.org/1999/xlink" version="1.1" width="176" height="192" viewBox="81 126 176 192" xml:space="preserve">
<desc>Created with Fabric.js 4.6.0</desc>
<defs>
</defs>
<g transform="matrix(1 0 0 1 87.04 186.64)" id="zwlKfIqAX3lh9zgQ6SVgI"  >
<path style="stroke: rgb(0,0,0); stroke-width: 1; stroke-dasharray: none; stroke-linecap: butt; stroke-dashoffset: 0; stroke-linejoin: miter; stroke-miterlimit: 4; fill: rgb(255,255,255); fill-opacity: 0; fill-rule: nonzero; opacity: 1;" vector-effect="non-scaling-stroke"  transform=" translate(0, 0)" d="M 0 0" stroke-linecap="round" />
</g>
<g transform="matrix(1 0 0 1 103.24 265.99)" id="SPPkKtJ4SA0SQfhTu_oV_"  >
<path style="stroke: rgb(0,0,0); stroke-width: 1; stroke-dasharray: none; stroke-linecap: butt; stroke-dashoffset: 0; stroke-linejoin: miter; stroke-miterlimit: 4; fill: rgb(255,255,255); fill-opacity: 0; fill-rule: nonzero; opacity: 1;" vector-effect="non-scaling-stroke"  transform=" translate(0, 0)" d="M 0 0" stroke-linecap="round" />
</g>
<g transform="matrix(1 0 0 1 132.61 230.56)" id="--7r9Gm1mXKswSgUmHYmN"  >
<path style="stroke: rgb(0,0,0); stroke-width: 1; stroke-dasharray: none; stroke-linecap: butt; stroke-dashoffset: 0; stroke-linejoin: miter; stroke-miterlimit: 4; fill: rgb(255,255,255); fill-opacity: 0; fill-rule: nonzero; opacity: 1;" vector-effect="non-scaling-stroke"  transform=" translate(0, 0)" d="M -32.61133 78.34616 L -18.036430000000003 28.953449999999997 L 32.611329999999995 -21.69431 L 32.611329999999995 -78.34617 L 32.611329999999995 -78.34617 L 32.611329999999995 -78.34617 L 32.611329999999995 -78.34617 L 32.611329999999995 -78.34617" stroke-linecap="round" />
</g>
<g transform="matrix(1 0 0 1 165.72 151.71)" id="WWZFluE6dtIi_gROX_7dn"  >
<path style="stroke: rgb(0,0,0); stroke-width: 1; stroke-dasharray: none; stroke-linecap: butt; stroke-dashoffset: 0; stroke-linejoin: miter; stroke-miterlimit: 4; fill: rgb(255,255,255); fill-opacity: 0; fill-rule: nonzero; opacity: 1;" vector-effect="non-scaling-stroke"  transform=" translate(0, 0)" d="M 0 0" stroke-linecap="round" />
</g>
<g transform="matrix(1 0 0 1 242.23 234.7)" id="L02IndcussUSCA7Yoz6EI"  >
<path style="stroke: rgb(0,0,0); stroke-width: 1; stroke-dasharray: none; stroke-linecap: butt; stroke-dashoffset: 0; stroke-linejoin: miter; stroke-miterlimit: 4; fill: rgb(255,255,255); fill-opacity: 0; fill-rule: nonzero; opacity: 1;" vector-effect="non-scaling-stroke"  transform=" translate(0, 0)" d="M 5.17706 -71.29673 L 5.17706 -37.202839999999995 L -5.17705 -26.848729999999996 L -5.17705 71.29672 L -5.17705 71.29672 L -5.17705 71.29672 L -5.17705 71.29672 L -5.17705 71.29672" stroke-linecap="round" />
</g>
<g transform="matrix(1 0 0 1 170.73 138.75)" id="4jJGurI1mlMJYXwzg4cWS"  >
<path style="stroke: rgb(0,0,0); stroke-width: 1; stroke-dasharray: none; stroke-linecap: butt; stroke-dashoffset: 0; stroke-linejoin: miter; stroke-miterlimit: 4; fill: rgb(255,255,255); fill-rule: nonzero; opacity: 1;" vector-effect="non-scaling-stroke"  transform=" translate(-2, -2)" d="M 2 0 C 3.104 0 4 0.896 4 2 C 4 3.104 3.104 4 2 4 C 0.8959999999999999 4 0 3.104 0 2 C 0 0.8959999999999999 0.896 0 2 0 z" stroke-linecap="round" />
</g>
<g transform="matrix(1 0 0 1 236.98 308.11)" id="EQ19PAr2O-ZhbX3Zt0rbn"  >
<path style="stroke: rgb(0,0,0); stroke-width: 1; stroke-dasharray: none; stroke-linecap: butt; stroke-dashoffset: 0; stroke-linejoin: miter; stroke-miterlimit: 4; fill: rgb(255,255,255); fill-rule: nonzero; opacity: 1;" vector-effect="non-scaling-stroke"  transform=" translate(-2, -2)" d="M 2 0 C 3.104 0 4 0.896 4 2 C 4 3.104 3.104 4 2 4 C 0.8959999999999999 4 0 3.104 0 2 C 0 0.8959999999999999 0.896 0 2 0 z" stroke-linecap="round" />
</g>
<g transform="matrix(1 0 0 1 247.5 162.9)" id="lWTQ9Opg8BxnLN4vhr87U"  >
<path style="stroke: rgb(0,0,0); stroke-width: 1; stroke-dasharray: none; stroke-linecap: butt; stroke-dashoffset: 0; stroke-linejoin: miter; stroke-miterlimit: 4; fill: rgb(255,255,255); fill-rule: nonzero; opacity: 1;" vector-effect="non-scaling-stroke"  transform=" translate(-2, -2)" d="M 2 0 C 3.104 0 4 0.896 4 2 C 4 3.104 3.104 4 2 4 C 0.8959999999999999 4 0 3.104 0 2 C 0 0.8959999999999999 0.896 0 2 0 z" stroke-linecap="round" />
</g>
<g transform="matrix(1 0 0 1 247.9 141.25)" id="nrIIMF4_y6nGVr073Is0W"  >
<path style="stroke: rgb(0,0,0); stroke-width: 1; stroke-dasharray: none; stroke-linecap: butt; stroke-dashoffset: 0; stroke-linejoin: miter; stroke-miterlimit: 4; fill: rgb(255,255,255); fill-rule: nonzero; opacity: 1;" vector-effect="non-scaling-stroke"  transform=" translate(0, 0)" d="M 0 -2 C 1.104 -2 2 -1.104 2 0 C 2 1.104 1.104 2 0 2 C -1.104 2 -2 1.104 -2 0 C -2 -1.104 -1.104 -2 0 -2 z" stroke-linecap="round" />
</g>
<g transform="matrix(1 0 0 1 234.12 162.4)" id="zNMgYLJSOEOaL3CoXc6ZR"  >
<path style="stroke: rgb(0,0,0); stroke-width: 1; stroke-dasharray: none; stroke-linecap: butt; stroke-dashoffset: 0; stroke-linejoin: miter; stroke-miterlimit: 4; fill: rgb(255,255,255); fill-opacity: 0; fill-rule: nonzero; opacity: 1;" vector-effect="non-scaling-stroke"  transform=" translate(0, 0)" d="M 0 0" stroke-linecap="round" />
</g>
<g transform="matrix(1 0 0 1 174.09 157.9)" id="vbU0-BOdEVuPm5O7z4P16"  >
<path style="stroke: rgb(0,0,0); stroke-width: 1; stroke-dasharray: none; stroke-linecap: butt; stroke-dashoffset: 0; stroke-linejoin: miter; stroke-miterlimit: 4; fill: rgb(255,255,255); fill-opacity: 0; fill-rule: nonzero; opacity: 1;" vector-effect="non-scaling-stroke"  transform=" translate(0, 0)" d="M 0 0" stroke-linecap="round" />
</g>
<g transform="matrix(1 0 0 1 165.22 144.48)" id="Xn4x60IUTSvUmt_fPgJrU"  >
<path style="stroke: rgb(0,0,0); stroke-width: 1; stroke-dasharray: none; stroke-linecap: butt; stroke-dashoffset: 0; stroke-linejoin: miter; stroke-miterlimit: 4; fill: rgb(255,255,255); fill-opacity: 0; fill-rule: nonzero; opacity: 1;" vector-effect="non-scaling-stroke"  transform=" translate(0, 0)" d="M 0 7.73 L 0 -7.73" stroke-linecap="round" />
</g>
<g transform="matrix(1 0 0 1 186.09 158.4)" id="xFWDOieynMEJm6RnEekCm"  >
<path style="stroke: rgb(0,0,0); stroke-width: 1; stroke-dasharray: none; stroke-linecap: butt; stroke-dashoffset: 0; stroke-linejoin: miter; stroke-miterlimit: 4; fill: rgb(255,255,255); fill-opacity: 0; fill-rule: nonzero; opacity: 1;" vector-effect="non-scaling-stroke"  transform=" translate(0, 0)" d="M 0 0" stroke-linecap="round" />
</g>
<g transform="matrix(1 0 0 1 209.12 150)" id="_ebayHyRThVRSVKDikQ6J"  >
<path style="stroke: rgb(0,0,0); stroke-width: 1; stroke-dasharray: none; stroke-linecap: butt; stroke-dashoffset: 0; stroke-linejoin: miter; stroke-miterlimit: 4; fill: rgb(255,255,255); fill-opacity: 0; fill-rule: nonzero; opacity: 1;" vector-effect="non-scaling-stroke"  transform=" translate(0, 0)" d="M -37.8849 -9.89737 L -18.030330000000003 9.89737 L 22.44624 9.89737 L 37.88489 -7.522630000000001" stroke-linecap="round" />
</g>
<g transform="matrix(1 0 0 1 186.59 158.9)" id="4Fe-HonfhLdtJ0mZg_9z8"  >
<path style="stroke: rgb(0,0,0); stroke-width: 1; stroke-dasharray: none; stroke-linecap: butt; stroke-dashoffset: 0; stroke-linejoin: miter; stroke-miterlimit: 4; fill: rgb(255,255,255); fill-opacity: 0; fill-rule: nonzero; opacity: 1;" vector-effect="non-scaling-stroke"  transform=" translate(0, 0)" d="M 0 0" stroke-linecap="round" />
</g>
<g transform="matrix(1 0 0 1 165.19 134.27)" id="KIePDDvzwZXH_kYDL2tYY"  >
<path style="stroke: rgb(0,0,0); stroke-width: 1; stroke-dasharray: none; stroke-linecap: butt; stroke-dashoffset: 0; stroke-linejoin: miter; stroke-miterlimit: 4; fill: rgb(255,255,255); fill-rule: nonzero; opacity: 1;" vector-effect="non-scaling-stroke"  transform=" translate(0, 0)" d="M 0 -2 C 1.104 -2 2 -1.104 2 0 C 2 1.104 1.104 2 0 2 C -1.104 2 -2 1.104 -2 0 C -2 -1.104 -1.104 -2 0 -2 z" stroke-linecap="round" />
</g>
<g transform="matrix(1 0 0 1 99.89 309.45)" id="liSceUNuBvRVreNyKw3eL"  >
<path style="stroke: rgb(0,0,0); stroke-width: 1; stroke-dasharray: none; stroke-linecap: butt; stroke-dashoffset: 0; stroke-linejoin: miter; stroke-miterlimit: 4; fill: rgb(255,255,255); fill-rule: nonzero; opacity: 1;" vector-effect="non-scaling-stroke"  transform=" translate(0, 0)" d="M 0 -2 C 1.104 -2 2 -1.104 2 0 C 2 1.104 1.104 2 0 2 C -1.104 2 -2 1.104 -2 0 C -2 -1.104 -1.104 -2 0 -2 z" stroke-linecap="round" />
</g>
<g transform="matrix(1 0 0 1 196.49 173.04)" id="QiqgkhBd69hr-D_yts-Lk"  >
<path style="stroke: rgb(0,0,0); stroke-width: 1; stroke-dasharray: none; stroke-linecap: butt; stroke-dashoffset: 0; stroke-linejoin: miter; stroke-miterlimit: 4; fill: rgb(255,255,255); fill-rule: nonzero; opacity: 1;" vector-effect="non-scaling-stroke"  transform=" translate(-2, -2)" d="M 2 0 C 3.104 0 4 0.896 4 2 C 4 3.104 3.104 4 2 4 C 0.8959999999999999 4 0 3.104 0 2 C 0 0.8959999999999999 0.896 0 2 0 z" stroke-linecap="round" />
</g>
<g transform="matrix(1 0 0 1 228.38 173.04)" id="viOvKylB2x9xuPlHEN8_B"  >
<path style="stroke: rgb(0,0,0); stroke-width: 1; stroke-dasharray: none; stroke-linecap: butt; stroke-dashoffset: 0; stroke-linejoin: miter; stroke-miterlimit: 4; fill: rgb(255,255,255); fill-rule: nonzero; opacity: 1;" vector-effect="non-scaling-stroke"  transform=" translate(-2, -2)" d="M 2 0 C 3.104 0 4 0.896 4 2 C 4 3.104 3.104 4 2 4 C 0.8959999999999999 4 0 3.104 0 2 C 0 0.8959999999999999 0.896 0 2 0 z" stroke-linecap="round" />
</g>
</svg>